HIERARCHY
ROOT Hips
{
	OFFSET 0.000000 0.000000 0.000000
	CHANNELS 6 Xposition Yposition Zposition Zrotation Yrotation Xrotation 
	JOINT LHipJoint
	{
		OFFSET 0.000000 0.000000 0.000000
		CHANNELS 3 Zrotation Yrotation Xrotation
		JOINT LeftUpLeg
		{
			OFFSET 1.363060 -1.794630 0.839290
			CHANNELS 3 Zrotation Yrotation Xrotation
			JOINT LeftLeg
			{
				OFFSET 2.448110 -6.726130 0.000000
				CHANNELS 3 Zrotation Yrotation Xrotation
				JOINT LeftFoot
				{
					OFFSET 2.562200 -7.039590 0.000000
					CHANNELS 3 Zrotation Yrotation Xrotation
					JOINT LeftToeBase
					{
						OFFSET 0.157640 -0.433110 2.322550
						CHANNELS 3 Zrotation Yrotation Xrotation
						End Site
						{
							OFFSET 0.000000 0.000000 0.000000
						}
					}
				}
			}
		}
	}
	JOINT RHipJoint
	{
		OFFSET 0.000000 0.000000 0.000000
		CHANNELS 3 Zrotation Yrotation Xrotation
		JOINT RightUpLeg
		{
			OFFSET -1.305520 -1.794630 0.839290
			CHANNELS 3 Zrotation Yrotation Xrotation
			JOINT RightLeg
			{
				OFFSET -2.542530 -6.985550 0.000000
				CHANNELS 3 Zrotation Yrotation Xrotation
				JOINT RightFoot
				{
					OFFSET -2.568260 -7.056230 0.000000
					CHANNELS 3 Zrotation Yrotation Xrotation
					JOINT RightToeBase
					{
						OFFSET -0.164730 -0.452590 2.363150
						CHANNELS 3 Zrotation Yrotation Xrotation
						End Site
						{
							OFFSET 0.000000 0.000000 0.000000
						}
					}
				}
			}
		}
	}
	JOINT LowerBack
	{
		OFFSET 0.000000 0.000000 0.000000
		CHANNELS 3 Zrotation Yrotation Xrotation
		JOINT Spine
		{
			OFFSET 0.028270 2.035590 -0.193380
			CHANNELS 3 Zrotation Yrotation Xrotation
			JOINT Spine1
			{
				OFFSET 0.056720 2.048850 -0.042750
				CHANNELS 3 Zrotation Yrotation Xrotation
				JOINT Neck
				{
					OFFSET 0.000000 0.000000 0.000000
					CHANNELS 3 Zrotation Yrotation Xrotation
					JOINT Neck1
					{
						OFFSET -0.054170 1.746240 0.172020
						CHANNELS 3 Zrotation Yrotation Xrotation
						JOINT Head
						{
							OFFSET 0.104070 1.761360 -0.123970
							CHANNELS 3 Zrotation Yrotation Xrotation
							End Site
							{
								OFFSET 0.000000 0.000000 0.000000
							}
						}
					}
				}
				JOINT LeftShoulder
				{
					OFFSET 0.000000 0.000000 0.000000
					CHANNELS 3 Zrotation Yrotation Xrotation
					JOINT LeftArm
					{
						OFFSET 3.362410 1.200890 -0.311210
						CHANNELS 3 Zrotation Yrotation Xrotation
						JOINT LeftForeArm
						{
							OFFSET 4.983000 -0.000000 -0.000000
							CHANNELS 3 Zrotation Yrotation Xrotation
							JOINT LeftHand
							{
								OFFSET 3.483560 -0.000000 -0.000000
								CHANNELS 3 Zrotation Yrotation Xrotation
								JOINT LeftFingerBase
								{
									OFFSET 0.000000 0.000000 0.000000
									CHANNELS 3 Zrotation Yrotation Xrotation
									JOINT LeftHandIndex1
									{
										OFFSET 0.715260 -0.000000 -0.000000
										CHANNELS 3 Zrotation Yrotation Xrotation
										End Site
										{
											OFFSET 0.000000 0.000000 0.000000
										}
									}
								}
								JOINT LThumb
								{
									OFFSET 0.000000 0.000000 0.000000
									CHANNELS 3 Zrotation Yrotation Xrotation
									End Site
									{
										OFFSET 0.000000 0.000000 0.000000
									}
								}
							}
						}
					}
				}
				JOINT RightShoulder
				{
					OFFSET 0.000000 0.000000 0.000000
					CHANNELS 3 Zrotation Yrotation Xrotation
					JOINT RightArm
					{
						OFFSET -3.136600 1.374050 -0.404650
						CHANNELS 3 Zrotation Yrotation Xrotation
						JOINT RightForeArm
						{
							OFFSET -5.241900 -0.000000 -0.000000
							CHANNELS 3 Zrotation Yrotation Xrotation
							JOINT RightHand
							{
								OFFSET -3.444170 -0.000000 -0.000000
								CHANNELS 3 Zrotation Yrotation Xrotation
								JOINT RightFingerBase
								{
									OFFSET 0.000000 0.000000 0.000000
									CHANNELS 3 Zrotation Yrotation Xrotation
									JOINT RightHandIndex1
									{
										OFFSET -0.622530 -0.000000 -0.000000
										CHANNELS 3 Zrotation Yrotation Xrotation
										End Site
										{
											OFFSET 0.000000 0.000000 0.000000
										}
									}
								}
								JOINT RThumb
								{
									OFFSET 0.000000 0.000000 0.000000
									CHANNELS 3 Zrotation Yrotation Xrotation
									End Site
									{
										OFFSET 0.000000 0.000000 0.000000
									}
								}
							}
						}
					}
				}
			}
		}
	}
}
MOTION
Frames: 12
Frame Time: 0.008333
25.332738 17.303731 -32.625536 -1.356017 -15.046171 1.317291 -0.725018 3.297812 3.518404 -2.401958 -11.686401 0.803631 0.230936 8.438292 25.508295 2.024704 -3.291200 -7.892320 4.363800 -12.629400 -37.996700 -2.373677 -2.718992 0.507555 13.662518 11.384117 -13.800799 -3.323808 -13.080054 39.110007 -1.761643 1.588792 -14.149303 -0.617000 5.027000 -13.985600 0.279637 -3.407394 1.143936 2.086033 -4.931491 -4.480293 2.209635 -1.737216 -8.283392 6.926190 15.586556 4.711373 -4.111271 19.549220 -8.897896 -12.960300 5.554500 -8.746100 -5.366805 -8.217556 4.520889 -74.380732 -0.771812 14.986744 142.470385 -44.568269 -106.890485 1.124997 -0.485378 -54.637038 29.535417 40.439946 20.553100 -7.125000 0.000000 0.000000 -14.358000 75.458800 -10.339600 10.777820 4.204368 3.253259 71.578968 -18.081616 24.901210 -129.853526 51.008369 -98.726971 -1.706506 2.268398 -30.206797 -23.456255 -2.668527 2.458000 7.125000 0.000000 0.000000 2.976400 -36.223300 0.643000 
25.338400 17.269448 -32.630684 -1.501241 -14.924269 1.300890 -0.713163 3.312719 3.536030 -2.293548 -11.803497 0.875087 0.237654 8.441162 25.505012 2.087588 -3.433346 -8.094725 4.207000 -12.430900 -37.273900 -2.412826 -2.713344 0.497318 13.837534 11.366056 -13.998623 -3.453791 -13.227457 39.624350 -1.778422 1.566470 -14.440829 -0.644800 5.137000 -14.299700 0.418306 -3.562045 1.250987 2.128481 -5.132351 -4.491797 2.365932 -1.828675 -8.332023 6.820479 15.780630 4.844822 -4.046912 19.780264 -8.929806 -12.885000 5.660400 -8.776700 -5.399344 -8.354317 4.570382 -74.101474 -1.968119 14.726490 142.388270 -44.541886 -106.831694 1.136633 -0.482214 -54.102110 30.514128 40.364698 21.280100 -7.125000 0.000000 0.000000 -12.742000 75.779600 -9.253200 10.815329 4.266370 3.278317 71.265458 -17.550057 24.696654 -130.568577 50.626985 -99.209810 -1.717637 2.251245 -29.812551 -23.768018 -2.763862 2.530100 7.125000 0.000000 0.000000 2.752800 -36.337900 0.586900 
25.347769 17.247519 -32.630993 -1.529985 -15.216000 1.402583 -0.729283 3.289388 3.520357 -2.367262 -11.558214 0.719692 0.220560 8.475674 25.617348 1.760027 -2.166044 -8.865081 4.765100 -13.114200 -39.797700 -2.434588 -2.693859 0.476852 13.810736 11.671850 -14.262840 -3.555320 -13.346037 39.991186 -1.883453 1.876032 -14.659769 -0.570900 4.838700 -13.449100 0.474403 -3.530424 1.092497 2.135718 -5.101195 -4.474471 2.449029 -1.803589 -8.232320 6.786148 16.017612 5.092655 -4.025836 20.073383 -9.269219 -12.842500 5.703900 -9.077500 -5.446297 -8.493652 4.642765 -73.825823 -3.136869 14.410907 142.190789 -44.625629 -106.722736 1.143277 -0.479659 -54.036126 30.999334 40.613360 21.754700 -7.125000 0.000000 0.000000 -12.458200 76.209300 -9.158200 10.818014 4.268372 3.313498 71.004574 -16.774090 24.342767 -131.138964 50.309061 -99.615937 -1.725093 2.253225 -29.180226 -23.598235 -2.696539 2.475800 7.125000 0.000000 0.000000 2.921000 -36.251500 0.629000 
25.360947 17.231768 -32.632125 -1.559539 -15.874482 1.569463 -0.753705 3.267142 3.513315 -2.489799 -11.182078 0.569994 0.216927 8.511816 25.748624 1.515865 -1.213420 -9.589872 4.983900 -13.365700 -40.753300 -2.462943 -2.662560 0.443026 13.752877 12.198482 -14.615269 -3.640979 -13.456073 40.308322 -1.957874 2.118766 -14.768659 -0.544600 4.728200 -13.134800 0.581450 -3.402797 0.795840 2.141885 -4.940733 -4.454309 2.430541 -1.736838 -8.019660 7.004847 16.047698 5.031995 -4.093251 20.194320 -9.251837 -12.975100 5.719700 -9.009000 -5.434210 -8.541770 4.685408 -73.646154 -4.126425 14.229192 142.357466 -44.444540 -106.819658 1.114695 -0.437048 -54.730467 32.534499 41.127880 23.161400 -7.125000 0.000000 0.000000 -10.787500 77.260300 -8.160400 10.898645 4.339735 3.353943 70.699706 -15.925194 23.871606 -131.683023 49.974397 -100.074824 -1.727560 2.291940 -28.527807 -22.245587 -2.460360 2.220500 7.125000 0.000000 0.000000 4.048700 -35.925400 0.904900 
25.373507 17.212001 -32.632331 -1.500964 -16.224602 1.613505 -0.773972 3.253707 3.509011 -2.644653 -11.048782 0.566531 0.247140 8.574342 25.944331 1.545282 -1.168481 -10.185408 4.886300 -13.254600 -40.329100 -2.488429 -2.642285 0.418113 13.611436 12.314619 -14.930528 -3.703574 -13.541438 40.556526 -1.940267 2.037741 -14.830240 -0.650100 5.157700 -14.358800 0.555473 -3.388855 0.673374 2.160079 -4.928016 -4.436157 2.506718 -1.737500 -7.805507 7.042104 16.101748 4.820802 -4.183015 20.325535 -9.252574 -13.053900 5.755100 -8.906900 -5.442997 -8.603058 4.724821 -73.562167 -5.125508 14.103203 142.939700 -43.938651 -107.129238 1.081109 -0.388638 -56.095483 35.799644 40.129884 25.401400 -7.125000 0.000000 0.000000 -2.686300 77.547000 -2.044100 10.991406 4.423807 3.392041 70.361390 -14.979019 23.473384 -132.223368 49.628182 -100.523096 -1.729046 2.325471 -28.220771 -21.108158 -2.135589 1.973100 7.125000 0.000000 0.000000 4.968800 -35.525600 1.160300 
25.387096 17.197999 -32.628110 -1.543603 -16.246654 1.604472 -0.776693 3.249372 3.514406 -2.639593 -11.056157 0.585404 0.328773 8.641888 26.140442 1.968691 -2.435244 -10.455300 4.255600 -12.492900 -37.498900 -2.509149 -2.646378 0.419167 13.614519 12.254677 -15.063519 -3.752711 -13.600112 40.751078 -1.931531 1.965957 -14.954377 -0.703200 5.359900 -14.937800 0.610912 -3.440865 0.775389 2.189881 -5.007731 -4.449587 2.716646 -1.736643 -7.978883 6.842443 16.355940 5.295053 -4.287740 20.584639 -9.757057 -13.057200 5.777900 -9.386900 -5.534393 -8.778409 4.785273 -73.624643 -5.827574 13.824556 143.238573 -43.644554 -107.299591 1.084315 -0.375079 -57.105684 37.159924 38.866020 25.965100 -7.125000 0.000000 0.000000 1.852500 76.801900 1.380700 10.990046 4.420157 3.423909 69.988846 -14.236604 23.247569 -132.782053 49.268769 -100.909831 -1.739895 2.334310 -28.129349 -21.206145 -1.541308 1.762700 7.125000 0.000000 0.000000 4.842200 -34.912000 1.203100 
25.402333 17.189454 -32.622654 -1.784238 -16.390454 1.702084 -0.743003 3.267580 3.492249 -2.490276 -11.045014 0.579073 0.381266 8.706072 26.280928 2.165621 -3.002332 -10.638518 3.932900 -12.070600 -35.982200 -2.521993 -2.610713 0.363999 13.850260 12.424702 -15.035571 -3.786622 -13.635720 40.892921 -1.943622 1.988206 -15.050048 -0.668800 5.229800 -14.565200 0.768567 -3.015897 1.074613 2.107423 -4.364986 -4.333897 2.091530 -1.576848 -7.133009 7.718310 15.883239 2.710420 -4.525670 20.359201 -9.591560 -13.229600 5.557900 -8.206000 -5.283444 -8.808818 4.797478 -72.998292 -8.154943 14.748488 142.968435 -43.608899 -107.220975 1.119565 -0.369454 -57.378613 36.211145 39.102709 25.294600 -7.125000 0.000000 0.000000 -0.463500 76.715500 -0.344600 11.256982 4.869581 3.497158 70.608553 -12.238433 21.179520 -133.247669 48.905223 -101.250466 -1.758763 2.348612 -27.746220 -21.684102 -0.943733 1.584100 7.125000 0.000000 0.000000 4.423400 -34.324500 1.161700 
25.419114 17.177203 -32.615962 -1.900721 -16.538441 1.734521 -0.742371 3.278035 3.501744 -2.453349 -11.031600 0.652045 0.374127 8.744892 26.400178 1.916811 -2.100774 -11.039711 4.432700 -12.715000 -38.310800 -2.547881 -2.609196 0.352903 13.958303 12.656734 -14.986492 -3.803823 -13.654740 40.976582 -1.917007 1.876023 -15.117030 -0.685600 5.293800 -14.748600 0.915389 -3.041240 1.028528 2.151424 -4.392932 -4.325214 2.108044 -1.618196 -6.838751 7.817596 15.784258 1.888486 -4.532695 20.319403 -9.252848 -13.239300 5.585300 -7.650300 -5.215127 -8.794617 4.769841 -73.351980 -8.684914 14.677843 143.357260 -43.242743 -107.484465 1.113637 -0.330161 -57.529740 35.232625 39.402388 24.596200 -7.125000 0.000000 0.000000 -2.822500 76.609600 -2.092400 11.413077 5.032463 3.539280 70.066321 -11.130425 20.868177 -133.767801 48.561742 -101.562697 -1.781928 2.346909 -27.150866 -22.591738 -0.330276 1.415800 7.125000 0.000000 0.000000 3.677100 -33.723900 1.018600 
25.437646 17.170202 -32.607623 -1.858410 -16.630951 1.700520 -0.743108 3.267672 3.507618 -2.564349 -10.939760 0.714033 0.394315 8.762667 26.492278 1.937190 -2.154477 -11.141863 4.479600 -12.772700 -38.523400 -2.543478 -2.628251 0.372048 13.825623 12.749731 -14.981042 -3.811059 -13.667638 41.002350 -1.911666 1.855313 -15.115726 -0.707700 5.376800 -14.986500 0.875129 -2.975895 0.831050 2.137377 -4.342555 -4.359207 2.237225 -1.528070 -7.201057 7.493680 16.033383 3.044661 -4.125444 20.374776 -9.568709 -12.902800 5.607400 -8.381800 -5.393663 -8.935674 4.814030 -73.710873 -8.444469 14.938117 143.758171 -42.965570 -107.686284 1.111895 -0.315850 -57.565519 35.411373 38.809948 24.469200 -7.125000 0.000000 0.000000 -1.682200 76.074300 -1.228000 11.297427 4.874676 3.539047 69.897296 -10.982213 20.533035 -134.477491 48.132381 -101.994701 -1.801736 2.320354 -26.543513 -23.392509 -0.239369 1.429400 7.125000 0.000000 0.000000 3.065100 -33.648100 0.854300 
25.460295 17.168967 -32.598872 -1.830439 -16.809200 1.655315 -0.756410 3.275246 3.538005 -2.662690 -10.776653 0.647923 0.425770 8.765938 26.520640 2.142873 -2.845190 -11.041007 4.187500 -12.405800 -37.183000 -2.533258 -2.629346 0.401672 13.679400 12.800583 -14.988967 -3.818715 -13.662814 40.999416 -1.944000 1.992631 -15.050124 -0.725000 5.440600 -15.169600 0.951260 -2.959805 0.755499 2.138209 -4.327761 -4.450728 2.043536 -1.512823 -7.760165 8.428046 15.704119 3.766464 -4.301558 20.053400 -9.114023 -13.472400 5.502400 -8.187600 -5.357227 -8.914552 4.790148 -74.053293 -8.181428 15.249356 144.013958 -42.752242 -107.791265 1.118623 -0.308306 -57.394862 36.376641 37.950828 24.855900 -7.125000 0.000000 0.000000 1.145700 75.572200 0.824200 11.396908 5.020523 3.570897 69.834685 -11.039741 20.157130 -135.229414 47.627899 -102.495408 -1.821462 2.303623 -26.208806 -23.688711 -0.421335 1.524000 7.125000 0.000000 0.000000 2.867300 -33.852400 0.784800 
25.486445 17.167320 -32.587032 -1.924160 -16.994931 1.704835 -0.771905 3.268061 3.541210 -2.648369 -10.582514 0.568005 0.423708 8.769585 26.543657 2.057027 -2.523668 -11.191791 4.373400 -12.641300 -38.040300 -2.547337 -2.634180 0.401218 13.694042 12.967925 -14.955870 -3.809789 -13.651708 40.961518 -1.958286 2.057275 -15.019091 -0.723400 5.434800 -15.152900 1.129497 -2.939093 0.781842 2.175407 -4.306105 -4.453377 2.177964 -1.487291 -7.715469 8.141344 15.884955 3.576638 -4.258083 20.241653 -9.244537 -13.308000 5.580700 -8.188800 -5.375927 -9.026964 4.801262 -74.679983 -8.746438 15.172284 144.099532 -42.656728 -107.845112 1.138575 -0.305009 -57.000982 35.428860 37.968949 24.093700 -7.125000 0.000000 0.000000 -0.727200 75.249900 -0.518100 11.444116 5.078837 3.606221 69.217046 -10.048931 19.733956 -135.711694 47.268101 -102.808367 -1.843211 2.296966 -25.912652 -24.301268 -0.148447 1.453800 7.125000 0.000000 0.000000 2.381600 -33.591500 0.666700 
25.509094 17.164334 -32.572619 -1.995919 -17.128939 1.684559 -0.773365 3.272562 3.550528 -2.645453 -10.381938 0.633247 0.448230 8.791782 26.626519 2.088441 -2.564506 -11.416699 4.396000 -12.669500 -38.143500 -2.559152 -2.649429 0.399425 13.717467 13.114559 -14.813763 -3.790487 -13.628146 40.884568 -1.973010 2.123201 -14.986047 -0.680100 5.273000 -14.688800 1.196412 -2.876965 0.720376 2.198045 -4.236494 -4.441847 2.298549 -1.430941 -7.659193 7.990197 16.017297 3.650041 -4.200225 20.361059 -9.416898 -13.208800 5.605300 -8.336500 -5.403351 -9.099394 4.814708 -75.257976 -8.912496 15.225917 144.115326 -42.627609 -107.922604 1.158872 -0.310278 -56.445136 32.139600 38.642243 21.781100 -7.125000 0.000000 0.000000 -7.398100 74.691500 -5.189100 11.464729 5.078870 3.643194 68.738889 -9.130873 19.135609 -136.021986 47.020280 -103.038354 -1.854424 2.308449 -25.471510 -24.312305 -0.021616 1.402100 7.125000 0.000000 0.000000 2.388500 -33.465000 0.675900 
